<?xml version="1.0" encoding="utf-8"?>
<!-- Generator: Adobe Illustrator 25.0.0, SVG Export Plug-In . SVG Version: 6.00 Build 0)  -->
<svg version="1.1" id="Layer_1" xmlns="http://www.w3.org/2000/svg" xmlns:xlink="http://www.w3.org/1999/xlink" x="0px" y="0px"
	 viewBox="0 0 600 776" style="enable-background:new 0 0 600 776;" xml:space="preserve">
<style type="text/css">
	.st0{fill:none;}
	.st1{fill:#FFFFFF;}
	.st2{fill:url(#SVGID_1_);}
	.st3{fill:#F0141E;}
</style>
<rect x="0.5" y="0.1" class="st0" width="600" height="776"/>
<path d="M271.3,199.8L174.5,228l-27.4,210.2c-7.1,53.3,4.2,92.2,28.8,118.6c-42.8-27.1-61-76.8-52.3-142.2l26.1-204.5l124.9-35.9
	L271.3,199.8z M488.8,137.5L391,165.8l-44.2,358.1l-2.2,17.9h-44.7c-18,0-32.1-10.7-37.4-25.9l0,0c4.3,1.5,8.9,2.3,13.9,2.3H303
	h17.7l2.2-17.7l43.8-352.8l124.9-35.9L488.8,137.5z"/>
<g>
	<path d="M374.6,150.6l124.9-35.9l-48.7,468H276.3c-107.3-0.1-158.2-63.8-144.8-165.2L157.6,213l124.9-35.9l-37.6,299.3
		c-2.7,24.8,14.6,44.7,39.4,44.7h26.6h17.7l2.2-17.7L374.6,150.6z M466.3,600.9l53.5-508.7l-161.2,46.5L313,503.5h-26.6
		c-15.1,0-25.2-12-23.5-27l39.4-321.8l-160.7,46.5l-27.9,216.4C98.6,533.2,161.1,600.9,274,600.9H466.3z"/>
</g>
<g>
	<path class="st1" d="M266.1,598.9c-56.4,0-101.1-17-129.3-49.1c-28.3-32.2-39.3-79-32-135.3l27.9-217.1l162.8-47.1L256,473.6
		c-0.8,7.1,1.1,13.8,5.4,18.6c4.2,4.7,10.2,7.3,17.1,7.3h25.7l45.6-364.6L513,87.8l-53.8,511.1H266.1z M124.5,414.7
		c-6.7,50.6,2.9,92.3,27.7,120.7c24.8,28.3,64.9,43.3,116.1,43.4h173.6l48.4-465.6l-122.8,35.3l-43.7,352.2l-2.3,18.6h-45.2
		c-12.1,0-22.9-4.7-30.4-13.1c-7.8-8.6-11.3-20.3-10-32.7l37.4-297.8L150.5,211L124.5,414.7z"/>
	<path d="M511.8,89.2l-53.5,508.7H266.1c-112.9,0-175.3-67.7-160.3-183.3l27.9-216.4l160.7-46.5L255,473.5c-1.8,15.1,8.4,27,23.5,27
		h26.6l45.6-364.8L511.8,89.2 M276.3,518.2c-24.8,0-42.1-19.9-39.4-44.7l37.6-299.3l-124.9,35.9l-26.1,204.5
		C110.1,515.9,161,579.7,268.3,579.8h174.5l48.7-468l-124.9,35.9l-43.8,352.8l-2.2,17.7h-17.7L276.3,518.2 M514.1,86.4l-2.9,0.8
		L350,133.7l-1.3,0.4l-0.2,1.3l-45.4,363h-24.8c-6.6,0-12.4-2.5-16.3-6.9c-4.1-4.6-5.9-11-5.1-17.8l39.4-321.8l0.4-3l-2.9,0.8
		l-160.7,46.5l-1.3,0.4l-0.2,1.3l-27.9,216.4c-3.7,28.6-2.8,54.7,2.8,77.8c5.5,22.7,15.4,42.3,29.5,58.3
		c28.4,32.4,73.4,49.5,130,49.5h192.2h1.8l0.2-1.8l53.5-508.7L514.1,86.4L514.1,86.4z M368.4,149.2l120.8-34.7L441,577.7H268.3
		c-25.9,0-48.9-3.8-68.4-11.2c-19-7.2-34.8-17.9-46.9-31.8c-12.3-14-20.8-31.3-25.5-51.4c-4.7-20.2-5.3-43.3-2-68.5l25.9-203.2
		L272.1,177l-37.2,296.2c-1.4,12.8,2.3,24.7,10.2,33.6c7.8,8.6,18.8,13.4,31.2,13.4h26.6h17.7h1.8l0.2-1.8l2.2-17.7L368.4,149.2
		L368.4,149.2z"/>
</g>
<g>
	<g>
		<path class="st1" d="M463,671.2l3.1-28.9h3.4c2,0,3.4,1.4,3.1,3.5l-2.1,21.5c-0.2,2.1-1.2,4-4.3,4L463,671.2L463,671.2z
			 M442.5,687.1h25.9c16.5,0,21.2-10.7,22.5-23.8l1.2-12.8c1.2-13.2-7.7-23.8-20.8-23.8h-22.5L442.5,687.1z M401.9,687.1h35.4
			l1.6-15.8h-15.2l0.9-8.2h15.2l1.3-12.6H426l0.9-8.3h15.2l1.5-15.6h-35.4L401.9,687.1z M372.6,642.3l-4.6,44.8h20.2l4.6-44.8h9.8
			l1.7-15.6h-39.7l-1.8,15.6H372.6z M334.1,687.1h20.2l6.4-60.5h-20.2L334.1,687.1z M272.9,687.1h18.6l2.4-23.5l2.9,23.5h8.2l8-23.5
			l-2.5,23.5h18.6l6.4-60.5h-19.6l-11.3,26.8l-5.5-26.8h-19.6L272.9,687.1z M247.6,687.1h20.2l6.4-60.5h-20.3L247.6,687.1z
			 M243.6,687.1l1.6-15.9l-14.1-0.1l4.2-44.5h-20.2l-6.3,60.5H243.6z M156.3,687.1h19.5l3.2-30l5.2,30h19.5l6.4-60.5h-19.6
			l-3.1,29.6l-5.2-29.6h-19.5L156.3,687.1z M125.9,687.1h25.3l6.3-60.5h-21.1l-4.8,44.8h-4.2c-2.3,0-4-1.9-3.8-4.2l4.2-40.6h-21.1
			l-3.5,31.3C101.4,673.9,112.1,687.1,125.9,687.1z"/>
	</g>
</g>
<linearGradient id="SVGID_1_" gradientUnits="userSpaceOnUse" x1="185.545" y1="160.8394" x2="459.6102" y2="635.5341" gradientTransform="matrix(1 0 0 -1 0 778)">
	<stop  offset="6.918227e-02" style="stop-color:#3E37F2"/>
	<stop  offset="0.9994" style="stop-color:#0075FF"/>
</linearGradient>
<path class="st2" d="M442.8,579.7l46-442.2L391,165.8l-44.2,358.1l-2.2,17.9h-44.7c-18,0-32.1-10.7-37.4-25.9
	c-17-5.9-27.6-22.6-25.5-42.4l34.4-273.7L174.6,228l-27.4,210.2c-7.1,53.3,4.2,92.2,28.8,118.6c23.5,14.9,54.5,22.9,92.5,22.9H442.8
	z"/>
<g>
	<polygon id="Fill-1_2_" class="st3" points="88.9,454.7 512.1,454.7 512.1,284.3 88.9,284.3 	"/>
	<path id="Fill-4_2_" class="st1" d="M499.1,415.2V441h-47.6V298h25.6v117.3L499.1,415.2L499.1,415.2z M295.7,368.1
		c-2,1-4.1,1.4-6.1,1.4v-46h0.1c2,0,17.1,0.6,17.1,22.8C306.9,357.8,301.8,365.1,295.7,368.1z M220.6,396.3l7.1-61.2l7.4,61.2H220.6
		z M447,324v-26h-72.6l-11.9,87.1L350.7,298h-26.2l2.9,23.3c-3-6-13.7-23.3-37.3-23.3c-0.2,0-26.2,0-26.2,0l-0.1,127l-19.1-127
		h-34.3l-19.7,131.6V298H158l-11.8,73.9L134.7,298h-32.8v143h25.8v-68.9l11.8,68.9h13.7l11.6-68.9V441h49.8l3-22h20.1l3,22h48.9l0,0
		l0,0h0.1v-46.4l6-0.9l12.4,47.3h25.3l0,0h0.1l-16.3-55.5c8.2-6.1,17.6-21.6,15.1-36.4l0,0c0,0.2,15.4,92,15.4,92l30.1-0.1
		l20.6-129.6V441H447v-25.7h-23.2v-32.8H447v-26.1h-23.2V324H447L447,324z"/>
</g>
</svg>
